# xmcd
#
# Track frame offsets:
#	150
#	17612
#	36205
#	56215
#	72744
#	88807
#	103849
#	115259
#	133948
#	155859
#	171909
#
# Disc length: 2531 seconds
#
# Revision: 0
# Processed by: cddbd v1.5.2PL0 Copyright (c) Steve Scherf et al.
# Submitted via: dBpowerAMP V4.0
#
DISCID=a709e10b
DTITLE=La Mal Coiffée - A l'Agacha
DYEAR=2009
DGENRE=Folklore
TTITLE0=La Mitona
TTITLE1=Aquo's donc fait
TTITLE2=Begam un còp de mai
TTITLE3=Sus la restolha
TTITLE4=Al fons de l'aiga
TTITLE5=Canti perlos
TTITLE6=Roseta
TTITLE7=La Pernèta
TTITLE8=Aval dins un castèl
TTITLE9=Me soi levat
TTITLE10=La Sant Joan d'estiu
EXTD=
EXTT0=
EXTT1=
EXTT2=
EXTT3=
EXTT4=
EXTT5=
EXTT6=
EXTT7=
EXTT8=
EXTT9=
EXTT10=
PLAYORDER=
